<svg width="36" height="36" viewBox="0 0 36 36" fill="none" xmlns="http://www.w3.org/2000/svg">
<path d="M27.3893 32.7422H8.60801C5.6596 32.7422 3.25665 30.354 3.25665 27.3908V8.60949C3.25665 5.66108 5.64486 3.25813 8.60801 3.25813H27.3893C30.3377 3.25813 32.7407 5.64634 32.7407 8.60949V27.3908C32.7407 30.354 30.3525 32.7422 27.3893 32.7422Z" fill="#999999"/>
<path d="M22.4665 18.8114H17.2183V13.5485H18.8252V17.2045H22.4665V18.8114Z" fill="white"/>
<path d="M13.5324 17.1899V18.7968H17.1737V22.4528H18.7806V17.1899H13.5324Z" fill="white"/>
<path d="M26.1653 13.5482V25.9757H9.83115V10.0396H22.4651V8.88972H8.68127V27.1109H27.3152V13.5482H26.1653Z" fill="white"/>
</svg>
